<?xml version="1.0" standalone="no"?>
<!DOCTYPE svg PUBLIC "-//W3C//DTD SVG 20010904//EN"
 "http://www.w3.org/TR/2001/REC-SVG-20010904/DTD/svg10.dtd">
<svg version="1.0" xmlns="http://www.w3.org/2000/svg"
 width="260.000000pt" height="260.000000pt" viewBox="0 0 260.000000 260.000000"
 preserveAspectRatio="xMidYMid meet">
<metadata>
Created by potrace 1.11, written by Peter Selinger 2001-2013
</metadata>
<g transform="translate(0.000000,260.000000) scale(0.100000,-0.100000)"
fill="#000000" stroke="none">
<path d="M1205 2269 c-335 -40 -598 -214 -761 -504 -32 -58 -98 -225 -89 -225
3 0 0 -12 -5 -26 -33 -85 -30 -319 5 -452 32 -123 115 -292 181 -367 14 -16
34 -39 43 -50 37 -45 136 -126 206 -171 116 -72 233 -115 380 -140 48 -8 228
-8 270 0 17 4 46 9 65 12 19 3 62 15 95 26 360 119 612 417 671 793 10 62 4
258 -10 322 -64 294 -233 524 -490 668 -166 92 -377 135 -561 114z"/>
</g>
</svg>
