<svg width="72" height="72" viewBox="0 0 72 72" fill="none" xmlns="http://www.w3.org/2000/svg">
<g clip-path="url(#clip0)">
<path fill-rule="evenodd" clip-rule="evenodd" d="M16.9609 39.7031C16.9609 29.973 24.848 22.0859 34.5781 22.0859H35.5391V38.7422H52.1953V39.7031C52.1953 49.4332 44.3082 57.3203 34.5781 57.3203C24.848 57.3203 16.9609 49.4332 16.9609 39.7031ZM33.6172 24.0367C25.3961 24.5332 18.8828 31.3571 18.8828 39.7031C18.8828 48.3718 25.9095 55.3984 34.5781 55.3984C42.9241 55.3984 49.748 48.8852 50.2445 40.6641H33.6172V24.0367Z" fill="#353535"/>
<path fill-rule="evenodd" clip-rule="evenodd" d="M38.7422 16.9609H39.7031C49.4332 16.9609 57.3203 24.848 57.3203 34.5781V35.5391H38.7422V16.9609ZM40.6641 18.9117V33.6172H55.3695C54.8922 25.7139 48.5673 19.389 40.6641 18.9117Z" fill="#353535"/>
</g>
<defs>
<clipPath id="clip0">
<rect width="41" height="41" fill="white" transform="translate(16 16)"/>
</clipPath>
</defs>
</svg>
