<svg width="1000" height="1000" viewBox="0 0 1000 1000" fill="none" xmlns="http://www.w3.org/2000/svg">
<path d="M760.848 456.208C762.276 455.732 762.752 454.78 763.228 453.828C773.224 428.6 799.404 425.744 816.54 426.696C819.396 426.696 820.348 428.6 820.348 430.98C821.776 457.16 812.732 483.34 777.984 487.624C769.892 488.576 769.892 488.576 770.844 496.668C774.176 524.752 770.844 551.884 760.848 578.064C760.372 579.016 760.372 579.492 759.896 580.444C758.468 583.776 756.564 585.68 752.756 584.252C749.424 582.824 749.424 579.968 750.376 577.112C753.708 568.068 756.564 559.024 758.468 549.504C765.132 515.232 761.324 481.912 747.044 450.02C745.14 446.212 743.236 444.308 738.952 444.308C735.62 444.308 731.812 443.832 728.48 443.356C704.68 439.072 691.352 422.888 689.924 397.66C689.924 396.708 689.924 396.232 689.924 395.28C689.448 382.428 689.924 381.952 702.776 382.904C719.436 383.856 734.192 388.616 743.712 403.848C747.996 410.988 750.852 418.604 750.852 426.696C750.852 437.644 757.516 446.688 760.848 456.208ZM773.224 478.104C795.12 477.628 809.876 462.396 810.352 440.976C810.352 437.644 809.4 436.692 806.068 436.692C783.696 437.644 770.368 450.972 768.94 473.344C768.94 477.152 769.892 478.58 773.224 478.104ZM704.68 392.9C701.824 392.424 700.396 393.376 700.396 396.708C699.92 418.128 717.056 435.264 738.476 434.312C741.332 434.312 742.284 433.36 741.808 430.504C740.856 408.132 727.052 393.376 704.68 392.9Z" fill="#E1DDC9"/>
<path d="M730.384 509.52C730.384 512.376 729.908 515.708 729.908 518.564C729.432 520.944 728.004 523.324 725.624 523.324C722.768 523.324 720.864 521.896 720.864 519.04C720.864 515.708 718.96 515.232 716.58 515.232C682.308 513.328 671.36 490.48 672.312 462.396C672.312 458.588 673.74 457.16 677.548 457.16C683.736 457.16 689.924 457.16 696.112 458.588C715.152 462.396 727.528 475.724 729.908 495.716C729.432 500 729.908 504.76 730.384 509.52ZM685.64 466.68C681.832 465.728 680.88 468.108 681.356 471.916C682.784 492.384 696.112 504.76 717.056 505.712C720.388 505.712 720.864 504.284 720.388 501.904C718.008 481.912 710.868 469.06 685.64 466.68Z" fill="#E1DDC9"/>
<path d="M247.72 426.22C247.72 418.128 250.576 410.512 254.86 403.372C264.38 388.14 279.136 383.856 295.796 382.428C308.648 381.476 309.124 381.952 308.648 394.804C308.648 395.756 308.648 396.232 308.648 397.184C307.696 422.412 293.892 438.12 270.092 442.88C266.76 443.356 263.428 444.308 259.62 443.832C255.336 443.832 252.956 445.26 251.528 449.544C237.248 481.436 233.44 514.756 240.104 549.028C242.008 558.548 244.864 567.592 248.196 576.636C249.148 579.492 249.148 582.348 245.816 583.776C242.008 585.204 240.104 583.3 238.676 579.968C238.2 579.016 238.2 578.54 237.724 577.588C227.728 551.408 224.396 523.8 227.728 496.192C228.68 488.1 228.68 488.1 220.588 487.148C185.84 482.864 176.796 456.684 178.224 430.504C178.224 428.124 179.176 426.696 182.032 426.22C199.644 425.268 225.824 428.124 235.344 453.352C235.82 454.304 235.82 455.256 237.724 455.732C241.532 446.688 248.196 437.644 247.72 426.22ZM230.108 473.344C228.68 450.972 214.876 437.644 192.98 436.692C189.648 436.692 188.696 437.644 188.696 440.976C188.696 462.396 203.928 477.628 225.824 478.104C229.156 478.58 230.108 477.152 230.108 473.344ZM257.24 430.504C257.24 433.36 257.716 434.312 260.572 434.312C281.516 435.264 299.128 418.128 298.652 396.708C298.652 392.9 297.224 392.424 294.368 392.9C271.996 393.376 257.716 408.132 257.24 430.504Z" fill="#E1DDC9"/>
<path d="M270.092 495.716C272.472 475.724 284.848 462.872 303.888 458.588C309.6 457.16 315.788 457.16 321.976 457.16C325.784 457.16 327.212 458.588 327.212 462.396C328.164 490.48 316.74 513.328 282.944 515.232C280.088 515.232 278.66 515.708 278.66 519.04C278.66 521.896 276.756 523.324 273.9 523.324C271.044 523.324 269.616 521.42 269.616 518.564C269.14 515.708 269.14 512.376 269.14 509.52C269.14 504.76 269.14 500 270.092 495.716ZM278.66 501.904C278.184 504.284 278.66 505.712 281.992 505.712C302.936 504.76 316.264 492.86 317.692 471.916C318.168 468.108 317.216 465.728 313.408 466.68C288.18 469.06 281.04 481.912 278.66 501.904Z" fill="#E1DDC9"/>
<path d="M591.868 562.356C589.964 561.88 588.536 560.452 588.536 558.072V439.072C588.536 437.168 589.964 435.264 591.868 434.788C599.96 433.36 607.1 427.172 607.1 418.128C607.1 410.036 600.912 403.372 592.82 403.372C589.012 403.372 584.728 404.8 580.92 408.608C579.016 410.512 579.016 413.844 580.92 416.224C582.824 418.128 586.156 418.128 588.536 416.224C589.964 414.796 591.392 414.32 592.82 414.32C595.2 414.32 596.628 416.224 596.628 418.604C596.628 422.888 592.344 424.792 588.536 424.792H542.84C539.032 424.792 534.748 422.888 534.748 418.604C534.748 416.224 536.176 414.32 538.556 414.32C539.984 414.32 541.412 414.796 542.84 416.224C544.744 418.128 548.076 418.128 550.456 416.224C552.36 414.32 552.36 410.988 550.456 408.608C546.648 404.8 542.84 403.372 538.556 403.372C530.464 403.372 524.276 410.036 524.276 418.128C524.276 427.172 531.416 433.36 539.508 434.788C541.412 435.264 542.84 436.692 542.84 439.072V489.052C542.84 491.432 540.936 493.336 538.556 493.336H465.252C462.872 493.336 460.968 491.432 460.968 489.052V439.072C460.968 437.168 462.396 435.264 464.3 434.788C472.392 433.36 479.532 427.172 479.532 418.128C479.532 410.036 473.344 403.372 465.252 403.372C461.444 403.372 457.16 404.8 453.352 408.608C451.448 410.512 451.448 413.844 453.352 416.224C455.256 418.128 458.588 418.128 460.968 416.224C462.396 414.796 463.824 414.32 465.252 414.32C467.632 414.32 469.06 416.224 469.06 418.604C469.06 422.888 464.776 424.792 460.968 424.792H415.272C411.464 424.792 407.18 422.888 407.18 418.604C407.18 416.224 408.608 414.32 410.988 414.32C412.416 414.32 413.844 414.796 415.272 416.224C417.176 418.128 420.508 418.128 422.888 416.224C424.792 414.32 424.792 410.988 422.888 408.608C419.08 404.8 415.272 403.372 410.988 403.372C402.896 403.372 396.708 410.036 396.708 418.128C396.708 427.172 403.848 433.36 411.94 434.788C413.844 435.264 415.272 436.692 415.272 439.072V558.072C415.272 559.976 413.844 561.88 411.94 562.356C403.848 563.784 396.708 569.972 396.708 579.016C396.708 587.108 402.896 593.772 410.988 593.772C414.796 593.772 419.08 592.344 422.888 588.536C424.792 586.632 424.792 583.3 422.888 580.92C420.984 579.016 417.652 579.016 415.272 580.92C413.844 582.348 412.416 582.824 410.988 582.824C408.608 582.824 407.18 580.92 407.18 578.54C407.18 574.256 411.464 572.352 415.272 572.352H460.968C464.776 572.352 469.06 574.256 469.06 578.54C469.06 580.92 467.632 582.824 465.252 582.824C463.824 582.824 462.396 582.348 460.968 580.92C459.064 579.016 455.732 579.016 453.352 580.92C451.448 582.824 451.448 586.156 453.352 588.536C457.16 592.344 460.968 593.772 465.252 593.772C473.344 593.772 479.532 587.108 479.532 579.016C479.532 569.972 472.392 563.784 464.3 562.356C462.396 561.88 460.968 560.452 460.968 558.072V508.092C460.968 505.712 462.872 503.808 465.252 503.808H538.08C540.46 503.808 542.364 505.712 542.364 508.092V558.072C542.364 559.976 540.936 561.88 539.032 562.356C530.94 563.784 523.8 569.972 523.8 579.016C523.8 587.108 529.988 593.772 538.08 593.772C541.888 593.772 546.172 592.344 549.98 588.536C551.884 586.632 551.884 583.3 549.98 580.92C548.076 579.016 544.744 579.016 542.364 580.92C540.936 582.348 539.508 582.824 538.08 582.824C535.7 582.824 534.272 580.92 534.272 578.54C534.272 574.256 538.556 572.352 542.364 572.352H588.06C591.868 572.352 596.152 574.256 596.152 578.54C596.152 580.92 594.724 582.824 592.344 582.824C590.916 582.824 589.488 582.348 588.06 580.92C586.156 579.016 582.824 579.016 580.444 580.92C578.54 582.824 578.54 586.156 580.444 588.536C584.252 592.344 588.06 593.772 592.344 593.772C600.436 593.772 606.624 587.108 606.624 579.016C607.1 569.972 599.96 563.308 591.868 562.356ZM450.496 557.596C450.496 559.976 448.592 561.88 446.212 561.88H430.504C428.124 561.88 426.22 559.976 426.22 557.596V439.072C426.22 436.692 428.124 434.788 430.504 434.788H446.212C448.592 434.788 450.496 436.692 450.496 439.072V557.596ZM577.588 557.596C577.588 559.976 575.684 561.88 573.304 561.88H557.596C555.216 561.88 553.312 559.976 553.312 557.596V439.072C553.312 436.692 555.216 434.788 557.596 434.788H573.304C575.684 434.788 577.588 436.692 577.588 439.072V557.596Z" fill="#E1DDC9"/>
<path d="M717.056 543.792C696.588 646.132 606.624 722.768 498.572 722.768C390.044 722.768 299.604 645.18 280.088 542.364" stroke="#E1DDC9" stroke-width="2.3244" stroke-miterlimit="10" stroke-linecap="round"/>
<path d="M804.64 561.88C776.08 705.156 649.94 812.732 498.572 812.732C346.728 812.732 219.636 704.204 192.028 559.976" stroke="#E1DDC9" stroke-width="2.3244" stroke-miterlimit="10" stroke-linecap="round"/>
<path d="M410.512 295.32C437.644 283.896 467.156 277.232 498.096 277.232C529.036 277.232 558.072 283.42 584.728 294.844" stroke="#E1DDC9" stroke-width="2.3244" stroke-miterlimit="10" stroke-linecap="round"/>
<path d="M316.74 244.864C368.148 208.212 430.98 186.792 498.572 186.792C566.64 186.792 629.472 208.688 680.88 245.34" stroke="#E1DDC9" stroke-width="2.3244" stroke-miterlimit="10" stroke-linecap="round"/>
<path d="M359.58 255.336C359.58 254.86 359.58 254.384 360.056 254.384L373.384 247.244C373.86 247.244 374.336 247.244 374.336 247.72L375.764 250.576C375.764 251.052 375.764 251.528 375.288 251.528L365.768 256.764L368.624 262L376.716 257.716C377.192 257.716 377.668 257.716 377.668 258.192L379.096 261.048C379.096 261.524 379.096 262 378.62 262L370.528 266.284L373.86 271.996L383.38 266.76C383.856 266.76 384.332 266.76 384.332 267.236L385.76 270.092C385.76 270.568 385.76 271.044 385.284 271.044L371.956 278.184C371.48 278.184 371.004 278.184 371.004 277.708L359.58 255.336Z" fill="#E1DDC9"/>
<path d="M400.992 258.192L401.468 255.812C401.468 255.336 401.944 254.86 402.42 255.336C402.42 255.336 406.228 256.288 408.608 255.336C410.512 254.86 411.464 252.956 410.512 251.528C410.036 249.624 407.656 249.148 404.324 249.148C400.516 249.148 396.708 248.196 394.804 244.388C393.852 241.532 394.328 236.772 400.04 234.868C403.372 233.44 406.704 234.392 407.656 234.392C408.132 234.392 408.608 234.868 408.132 235.344L407.656 237.724C407.656 238.2 407.18 238.676 406.704 238.676C406.228 238.676 402.896 237.724 400.992 238.676C399.088 239.628 398.612 241.056 399.088 242.484C399.564 243.912 401.468 244.864 404.8 244.864C408.608 244.864 413.368 245.34 414.796 249.624C416.224 252.956 414.32 257.716 409.56 259.62C405.276 261.524 401.944 260.096 400.992 260.096C400.992 259.144 400.992 258.668 400.992 258.192Z" fill="#E1DDC9"/>
<path d="M434.312 228.68L428.6 229.632C428.124 229.632 427.648 229.632 427.648 229.156L427.172 226.3C427.172 225.824 427.172 225.348 427.648 225.348L443.356 221.54C443.832 221.54 444.308 221.54 444.308 222.016L444.784 224.872C444.784 225.348 444.784 225.824 444.308 225.824L438.596 227.252L443.356 247.244C443.356 247.72 443.356 248.196 442.88 248.196L439.548 249.148C439.072 249.148 438.596 249.148 438.596 248.672L434.312 228.68Z" fill="#E1DDC9"/>
<path d="M465.252 218.684C465.252 218.208 465.252 217.732 465.728 217.732L474.296 216.78C481.436 216.304 487.624 221.54 488.1 228.68C488.576 235.82 483.34 242.008 476.2 242.484L467.632 243.436C467.156 243.436 467.156 242.96 466.68 242.96L465.252 218.684ZM476.2 238.676C480.96 238.2 484.292 234.392 483.816 229.632C483.34 224.872 479.532 221.54 474.772 222.016L470.488 222.492L471.916 239.152L476.2 238.676Z" fill="#E1DDC9"/>
<path d="M528.56 242.484C531.416 240.104 537.128 234.868 539.984 232.012C541.412 230.584 542.364 229.632 542.364 228.204C542.84 226.776 541.888 224.872 539.032 224.396C537.128 223.92 535.7 225.348 534.748 225.824C534.272 226.3 533.796 225.824 533.796 225.824L532.368 223.92C532.368 223.444 532.368 223.444 532.368 222.968C532.368 222.968 535.7 219.636 539.984 220.588C545.22 221.54 547.6 225.348 547.124 229.156C546.648 231.536 545.696 232.964 543.792 234.868C541.888 236.772 538.556 239.628 536.176 242.008L544.268 243.436C544.744 243.436 544.744 243.912 544.744 244.388L544.268 246.768C544.268 247.244 543.792 247.244 543.316 247.244L529.036 244.864C528.56 244.864 528.56 244.388 528.56 243.912V242.484Z" fill="#E1DDC9"/>
<path d="M565.688 238.2C568.068 230.584 572.828 226.776 578.54 228.68C584.252 230.584 586.156 235.82 583.776 243.912C581.396 251.528 576.636 255.336 570.924 253.432C565.212 251.528 563.308 246.292 565.688 238.2ZM579.016 242.484C580.444 237.248 579.968 233.916 577.112 232.964C574.256 232.012 571.876 234.392 570.448 239.628C569.02 244.864 569.496 248.196 572.352 249.148C574.732 250.1 577.112 247.72 579.016 242.484Z" fill="#E1DDC9"/>
<path d="M607.1 247.244L603.768 246.292C603.292 246.292 603.292 245.816 603.292 245.34L603.768 243.436C603.768 242.96 604.244 242.96 604.244 242.96L610.908 241.056L613.288 242.008C613.764 242.008 613.764 242.484 613.764 242.96L603.768 264.38C603.768 264.856 603.292 264.856 602.816 264.856L599.96 264.38C599.484 264.38 599.484 263.904 599.484 263.428L607.1 247.244Z" fill="#E1DDC9"/>
<path d="M633.28 260.572L629.948 259.62C629.472 259.62 629.472 259.144 629.472 258.668L630.424 257.24C630.424 256.764 630.9 256.764 630.9 256.764L637.564 255.812L639.944 257.24C640.42 257.24 640.42 257.716 639.944 258.192L627.568 278.66C627.568 279.136 627.092 279.136 626.616 279.136L623.76 277.708C623.284 277.708 623.284 277.232 623.284 276.756L633.28 260.572Z" fill="#E1DDC9"/>
<path d="M503.808 690.4H492.384C482.864 660.412 458.112 649.94 428.6 638.04C417.176 633.28 404.8 628.52 392.9 621.856C367.672 608.052 351.964 584.728 349.584 556.644C346.728 525.704 354.344 370.528 354.344 363.864L354.82 353.868L363.388 359.104C363.388 359.104 387.664 373.86 410.036 373.86C438.596 373.86 478.104 354.344 492.384 332.448L497.144 324.832L501.904 332.448C515.232 352.44 557.596 373.86 584.252 373.86C606.624 373.86 630.9 359.104 630.9 359.104L639.468 353.868L639.944 363.864C640.42 370.528 647.56 525.704 644.704 556.644C642.324 584.728 626.616 608.052 601.388 621.856C589.488 628.52 577.588 633.28 565.688 638.04C538.556 649.94 513.328 660.412 503.808 690.4Z" stroke="#E1DDC9" stroke-width="2.3244" stroke-miterlimit="10" stroke-linecap="round"/>
<path d="M311.98 671.36C312.456 670.884 312.932 670.884 313.408 671.36L317.216 674.692C317.692 675.168 317.692 675.644 317.216 676.12L307.22 686.592L320.548 698.968L330.544 688.496C331.02 688.02 331.496 688.02 331.972 688.496L335.78 691.828C336.256 692.304 336.256 692.78 335.78 693.256L310.552 719.912C310.076 720.388 309.6 720.388 309.124 719.912L305.316 716.58C304.84 716.104 304.84 715.628 305.316 715.152L315.788 704.204L302.46 691.828L291.988 702.776C291.512 703.252 291.036 703.252 290.56 702.776L286.752 699.444C286.276 698.968 286.276 698.492 286.752 698.016L311.98 671.36Z" fill="#E1DDC9"/>
<path d="M374.812 717.532C384.332 722.768 387.664 735.144 382.428 744.664C377.192 754.184 364.816 757.516 355.296 752.28C345.776 747.044 342.444 734.668 347.68 725.148C352.916 715.628 364.816 712.296 374.812 717.532ZM358.628 746.092C364.816 749.424 372.432 747.52 375.764 741.332C379.096 735.144 377.192 727.528 371.004 723.72C364.816 720.388 357.2 722.768 353.868 728.48C350.536 735.144 352.44 742.76 358.628 746.092Z" fill="#E1DDC9"/>
<path d="M415.748 738C415.748 737.524 416.7 737.048 417.176 737.524L438.596 743.712C439.072 743.712 439.548 744.664 439.072 745.14L437.644 749.424C437.644 749.9 436.692 750.376 436.216 749.9L420.508 745.14L417.652 755.136L430.98 758.944C431.456 758.944 431.932 759.896 431.456 760.372L430.028 764.656C430.028 765.132 429.076 765.608 428.6 765.132L415.272 761.324L411.464 774.652C411.464 775.128 410.512 775.604 410.036 775.128L405.276 773.7C404.8 773.7 404.324 772.748 404.8 772.272L415.748 738Z" fill="#E1DDC9"/>
<path d="M464.776 749.9C464.776 749.424 465.252 748.948 465.728 748.948L478.58 749.9C485.244 750.376 490.004 755.136 489.528 760.848C489.052 765.132 485.244 767.988 482.864 768.94C485.72 769.892 489.528 773.224 489.052 778.46C488.576 784.648 482.864 788.456 476.2 787.98L462.872 787.028C462.396 787.028 461.92 786.552 461.92 786.076L464.776 749.9ZM475.724 781.792C478.58 781.792 480.96 779.888 480.96 777.032C480.96 774.176 478.58 771.796 475.724 771.796L469.536 771.32L468.584 781.316L475.724 781.792ZM476.676 766.084C479.532 766.084 481.436 764.18 481.912 761.324C481.912 758.468 480.484 756.564 477.628 756.088L471.916 755.612L470.964 765.132L476.676 766.084Z" fill="#E1DDC9"/>
<path d="M517.612 787.98L529.988 748.948C529.988 748.472 530.464 748.472 530.94 747.996H531.416C531.892 747.996 532.368 747.996 532.368 748.472L554.264 783.22C554.74 783.696 554.264 784.648 553.312 784.648L548.552 785.124C547.6 785.124 547.124 785.124 546.648 784.172L543.316 778.46L527.132 780.84L525.228 787.028C525.228 787.504 524.752 788.456 523.8 788.456L519.04 788.932C518.088 789.408 517.136 788.456 517.612 787.98ZM539.984 773.224L532.844 761.8L529.036 774.652L539.984 773.224Z" fill="#E1DDC9"/>
<path d="M571.4 741.332C571.4 740.856 571.4 740.38 571.876 739.904L576.636 738C577.112 738 577.588 738 578.064 738.476L585.68 759.896C587.108 764.18 591.392 766.56 596.152 765.132C600.436 763.228 602.34 758.944 600.912 754.66L592.82 733.24C592.82 732.764 592.82 732.288 593.296 731.812L598.056 729.908C598.532 729.908 599.008 729.908 599.484 730.384L607.576 751.804C610.432 759.896 606.624 768.464 598.532 771.32C590.44 774.176 581.872 770.368 579.016 762.276L571.4 741.332Z" fill="#E1DDC9"/>
<path d="M625.664 717.532C625.188 717.056 625.664 716.58 626.14 716.104L645.18 703.728C645.656 703.252 646.132 703.728 646.608 704.204L648.988 708.012C649.464 708.488 648.988 708.964 648.512 709.44L634.708 718.484L639.468 726.1L650.892 718.484C651.368 718.008 651.844 718.484 652.32 718.96L654.7 722.768C655.176 723.244 654.7 723.72 654.224 724.196L642.8 731.812L648.036 739.904L661.84 730.86C662.316 730.384 662.792 730.86 663.268 731.336L665.648 735.144C666.124 735.62 665.648 736.096 665.172 736.572L646.132 748.948C645.656 749.424 645.18 748.948 644.704 748.472L625.664 717.532Z" fill="#E1DDC9"/>
<path d="M667.552 687.068C667.076 686.592 667.076 686.116 667.552 685.64L678.976 674.692C683.736 669.932 691.352 669.932 696.112 674.692C699.92 678.5 700.396 683.736 698.016 688.496L713.248 693.256C714.2 693.256 714.2 694.208 713.724 695.16L709.44 699.444C708.964 699.92 708.488 699.92 708.488 699.92L692.78 694.684L688.496 698.968L698.492 708.964C698.968 709.44 698.968 709.916 698.492 710.392L694.684 714.2C694.208 714.676 693.732 714.676 693.256 714.2L667.552 687.068ZM690.876 687.544C692.78 685.64 692.78 681.832 690.876 679.452C688.972 677.548 685.164 677.548 683.26 679.452L677.072 685.64L684.688 693.256L690.876 687.544Z" fill="#E1DDC9"/>
</svg>
