<?xml version="1.0" encoding="utf-8"?>
<!-- Generator: Adobe Illustrator 19.2.0, SVG Export Plug-In . SVG Version: 6.00 Build 0)  -->
<svg version="1.1" id="Layer_1" xmlns="http://www.w3.org/2000/svg" xmlns:xlink="http://www.w3.org/1999/xlink" x="0px" y="0px"
	 viewBox="0 0 150 150" style="enable-background:new 0 0 150 150;" xml:space="preserve">
<metadata><?xpacket begin="﻿" id="W5M0MpCehiHzreSzNTczkc9d"?>
<x:xmpmeta xmlns:x="adobe:ns:meta/" x:xmptk="Adobe XMP Core 5.6-c111 79.158366, 2015/09/25-01:12:00        ">
   <rdf:RDF xmlns:rdf="http://www.w3.org/1999/02/22-rdf-syntax-ns#">
      <rdf:Description rdf:about=""/>
   </rdf:RDF>
</x:xmpmeta>
                                                                                                    
                                                                                                    
                                                                                                    
                                                                                                    
                                                                                                    
                                                                                                    
                                                                                                    
                                                                                                    
                                                                                                    
                                                                                                    
                                                                                                    
                                                                                                    
                                                                                                    
                                                                                                    
                                                                                                    
                                                                                                    
                                                                                                    
                                                                                                    
                                                                                                    
                                                                                                    
                           
<?xpacket end="w"?></metadata>
<style type="text/css">
	.st0{fill:#E1DDC9;}
	.st1{fill:none;stroke:#E1DDC9;stroke-width:2.3244;stroke-linecap:round;stroke-miterlimit:10;}
</style>
<path class="st0" d="M129.8,65.8c0.3-0.1,0.4-0.3,0.5-0.5c2.1-5.3,7.6-5.9,11.2-5.7c0.6,0,0.8,0.4,0.8,0.9c0.3,5.5-1.6,11-8.9,11.9
	c-1.7,0.2-1.7,0.2-1.5,1.9c0.7,5.9,0,11.6-2.1,17.1c-0.1,0.2-0.1,0.3-0.2,0.5c-0.3,0.7-0.7,1.1-1.5,0.8c-0.7-0.3-0.7-0.9-0.5-1.5
	c0.7-1.9,1.3-3.8,1.7-5.8c1.4-7.2,0.6-14.2-2.4-20.9c-0.4-0.8-0.8-1.2-1.7-1.2c-0.7,0-1.5-0.1-2.2-0.2c-5-0.9-7.8-4.3-8.1-9.6
	c0-0.2,0-0.3,0-0.5c-0.1-2.7,0-2.8,2.7-2.6c3.5,0.2,6.6,1.2,8.6,4.4c0.9,1.5,1.5,3.1,1.5,4.8C127.7,61.9,129.1,63.8,129.8,65.8z
	 M132.4,70.4c4.6-0.1,7.7-3.3,7.8-7.8c0-0.7-0.2-0.9-0.9-0.9c-4.7,0.2-7.5,3-7.8,7.7C131.5,70.2,131.7,70.5,132.4,70.4z M118,52.5
	c-0.6-0.1-0.9,0.1-0.9,0.8c-0.1,4.5,3.5,8.1,8,7.9c0.6,0,0.8-0.2,0.7-0.8C125.6,55.7,122.7,52.6,118,52.5z"/>
<path class="st0" d="M123.4,77c0,0.6-0.1,1.3-0.1,1.9c-0.1,0.5-0.4,1-0.9,1c-0.6,0-1-0.3-1-0.9c0-0.7-0.4-0.8-0.9-0.8
	c-7.2-0.4-9.5-5.2-9.3-11.1c0-0.8,0.3-1.1,1.1-1.1c1.3,0,2.6,0,3.9,0.3c4,0.8,6.6,3.6,7.1,7.8C123.2,75,123.3,76,123.4,77z M114,68
	c-0.8-0.2-1,0.3-0.9,1.1c0.3,4.3,3.1,6.9,7.5,7.1c0.7,0,0.8-0.3,0.7-0.8C120.8,71.2,119.3,68.5,114,68z"/>
<path class="st0" d="M22,59.5c0-1.7,0.6-3.3,1.5-4.8c2-3.2,5.1-4.1,8.6-4.4c2.7-0.2,2.8-0.1,2.7,2.6c0,0.2,0,0.3,0,0.5
	c-0.2,5.3-3.1,8.6-8.1,9.6c-0.7,0.1-1.4,0.3-2.2,0.2c-0.9,0-1.4,0.3-1.7,1.2c-3,6.7-3.8,13.7-2.4,20.9c0.4,2,1,3.9,1.7,5.8
	c0.2,0.6,0.2,1.2-0.5,1.5c-0.8,0.3-1.2-0.1-1.5-0.8c-0.1-0.2-0.1-0.3-0.2-0.5c-2.1-5.5-2.8-11.3-2.1-17.1c0.2-1.7,0.2-1.7-1.5-1.9
	c-7.3-0.9-9.2-6.4-8.9-11.9c0-0.5,0.2-0.8,0.8-0.9c3.7-0.2,9.2,0.4,11.2,5.7c0.1,0.2,0.1,0.4,0.5,0.5C20.7,63.8,22.1,61.9,22,59.5z
	 M18.3,69.4c-0.3-4.7-3.2-7.5-7.8-7.7c-0.7,0-0.9,0.2-0.9,0.9c0,4.5,3.2,7.7,7.8,7.8C18.1,70.5,18.3,70.2,18.3,69.4z M24,60.4
	c0,0.6,0.1,0.8,0.7,0.8c4.4,0.2,8.1-3.4,8-7.9c0-0.8-0.3-0.9-0.9-0.8C27.1,52.6,24.1,55.7,24,60.4z"/>
<path class="st0" d="M26.7,74.1c0.5-4.2,3.1-6.9,7.1-7.8C35,66,36.3,66,37.6,66c0.8,0,1.1,0.3,1.1,1.1c0.2,5.9-2.2,10.7-9.3,11.1
	c-0.6,0-0.9,0.1-0.9,0.8c0,0.6-0.4,0.9-1,0.9c-0.6,0-0.9-0.4-0.9-1c-0.1-0.6-0.1-1.3-0.1-1.9C26.5,76,26.5,75,26.7,74.1z M28.5,75.4
	c-0.1,0.5,0,0.8,0.7,0.8c4.4-0.2,7.2-2.7,7.5-7.1c0.1-0.8-0.1-1.3-0.9-1.1C30.5,68.5,29,71.2,28.5,75.4z"/>
<g>
	<path class="st0" d="M94.3,88.1c-0.4-0.1-0.7-0.4-0.7-0.9v-25c0-0.4,0.3-0.8,0.7-0.9c1.7-0.3,3.2-1.6,3.2-3.5c0-1.7-1.3-3.1-3-3.1
		c-0.8,0-1.7,0.3-2.5,1.1c-0.4,0.4-0.4,1.1,0,1.6c0.4,0.4,1.1,0.4,1.6,0c0.3-0.3,0.6-0.4,0.9-0.4c0.5,0,0.8,0.4,0.8,0.9
		c0,0.9-0.9,1.3-1.7,1.3h-9.6c-0.8,0-1.7-0.4-1.7-1.3c0-0.5,0.3-0.9,0.8-0.9c0.3,0,0.6,0.1,0.9,0.4c0.4,0.4,1.1,0.4,1.6,0
		c0.4-0.4,0.4-1.1,0-1.6c-0.8-0.8-1.6-1.1-2.5-1.1c-1.7,0-3,1.4-3,3.1c0,1.9,1.5,3.2,3.2,3.5c0.4,0.1,0.7,0.4,0.7,0.9v10.5
		c0,0.5-0.4,0.9-0.9,0.9H67.7c-0.5,0-0.9-0.4-0.9-0.9V62.2c0-0.4,0.3-0.8,0.7-0.9c1.7-0.3,3.2-1.6,3.2-3.5c0-1.7-1.3-3.1-3-3.1
		c-0.8,0-1.7,0.3-2.5,1.1c-0.4,0.4-0.4,1.1,0,1.6c0.4,0.4,1.1,0.4,1.6,0c0.3-0.3,0.6-0.4,0.9-0.4c0.5,0,0.8,0.4,0.8,0.9
		c0,0.9-0.9,1.3-1.7,1.3h-9.6c-0.8,0-1.7-0.4-1.7-1.3c0-0.5,0.3-0.9,0.8-0.9c0.3,0,0.6,0.1,0.9,0.4c0.4,0.4,1.1,0.4,1.6,0
		c0.4-0.4,0.4-1.1,0-1.6c-0.8-0.8-1.6-1.1-2.5-1.1c-1.7,0-3,1.4-3,3.1c0,1.9,1.5,3.2,3.2,3.5c0.4,0.1,0.7,0.4,0.7,0.9v25
		c0,0.4-0.3,0.8-0.7,0.9c-1.7,0.3-3.2,1.6-3.2,3.5c0,1.7,1.3,3.1,3,3.1c0.8,0,1.7-0.3,2.5-1.1c0.4-0.4,0.4-1.1,0-1.6
		c-0.4-0.4-1.1-0.4-1.6,0c-0.3,0.3-0.6,0.4-0.9,0.4c-0.5,0-0.8-0.4-0.8-0.9c0-0.9,0.9-1.3,1.7-1.3h9.6c0.8,0,1.7,0.4,1.7,1.3
		c0,0.5-0.3,0.9-0.8,0.9c-0.3,0-0.6-0.1-0.9-0.4c-0.4-0.4-1.1-0.4-1.6,0c-0.4,0.4-0.4,1.1,0,1.6c0.8,0.8,1.6,1.1,2.5,1.1
		c1.7,0,3-1.4,3-3.1c0-1.9-1.5-3.2-3.2-3.5c-0.4-0.1-0.7-0.4-0.7-0.9V76.7c0-0.5,0.4-0.9,0.9-0.9H83c0.5,0,0.9,0.4,0.9,0.9v10.5
		c0,0.4-0.3,0.8-0.7,0.9c-1.7,0.3-3.2,1.6-3.2,3.5c0,1.7,1.3,3.1,3,3.1c0.8,0,1.7-0.3,2.5-1.1c0.4-0.4,0.4-1.1,0-1.6
		c-0.4-0.4-1.1-0.4-1.6,0c-0.3,0.3-0.6,0.4-0.9,0.4c-0.5,0-0.8-0.4-0.8-0.9c0-0.9,0.9-1.3,1.7-1.3h9.6c0.8,0,1.7,0.4,1.7,1.3
		c0,0.5-0.3,0.9-0.8,0.9c-0.3,0-0.6-0.1-0.9-0.4c-0.4-0.4-1.1-0.4-1.6,0c-0.4,0.4-0.4,1.1,0,1.6c0.8,0.8,1.6,1.1,2.5,1.1
		c1.7,0,3-1.4,3-3.1C97.5,89.7,96,88.3,94.3,88.1z M64.6,87.1c0,0.5-0.4,0.9-0.9,0.9h-3.3c-0.5,0-0.9-0.4-0.9-0.9V62.2
		c0-0.5,0.4-0.9,0.9-0.9h3.3c0.5,0,0.9,0.4,0.9,0.9V87.1z M91.3,87.1c0,0.5-0.4,0.9-0.9,0.9h-3.3c-0.5,0-0.9-0.4-0.9-0.9V62.2
		c0-0.5,0.4-0.9,0.9-0.9h3.3c0.5,0,0.9,0.4,0.9,0.9V87.1z"/>
</g>
<path class="st1" d="M120.6,84.2c-4.3,21.5-23.2,37.6-45.9,37.6c-22.8,0-41.8-16.3-45.9-37.9"/>
<path class="st1" d="M139,88c-6,30.1-32.5,52.7-64.3,52.7c-31.9,0-58.6-22.8-64.4-53.1"/>
<path class="st1" d="M56.2,32c5.7-2.4,11.9-3.8,18.4-3.8c6.5,0,12.6,1.3,18.2,3.7"/>
<path class="st1" d="M36.5,21.4c10.8-7.7,24-12.2,38.2-12.2c14.3,0,27.5,4.6,38.3,12.3"/>
<g>
	<path class="st0" d="M45.5,23.6c0-0.1,0-0.2,0.1-0.2l2.8-1.5c0.1,0,0.2,0,0.2,0.1l0.3,0.6c0,0.1,0,0.2-0.1,0.2l-2,1.1l0.6,1.1
		l1.7-0.9c0.1,0,0.2,0,0.2,0.1l0.3,0.6c0,0.1,0,0.2-0.1,0.2l-1.7,0.9l0.7,1.2l2-1.1c0.1,0,0.2,0,0.2,0.1l0.3,0.6
		c0,0.1,0,0.2-0.1,0.2l-2.8,1.5c-0.1,0-0.2,0-0.2-0.1L45.5,23.6z"/>
	<path class="st0" d="M54.2,24.2l0.1-0.5c0-0.1,0.1-0.2,0.2-0.1c0,0,0.8,0.2,1.3,0c0.4-0.1,0.6-0.5,0.4-0.8
		c-0.1-0.4-0.6-0.5-1.3-0.5c-0.8,0-1.6-0.2-2-1c-0.2-0.6-0.1-1.6,1.1-2c0.7-0.3,1.4-0.1,1.6-0.1c0.1,0,0.2,0.1,0.1,0.2l-0.1,0.5
		c0,0.1-0.1,0.2-0.2,0.2c-0.1,0-0.8-0.2-1.2,0c-0.4,0.2-0.5,0.5-0.4,0.8c0.1,0.3,0.5,0.5,1.2,0.5c0.8,0,1.8,0.1,2.1,1
		c0.3,0.7-0.1,1.7-1.1,2.1c-0.9,0.4-1.6,0.1-1.8,0.1C54.2,24.4,54.2,24.3,54.2,24.2z"/>
	<path class="st0" d="M61.2,18L60,18.2c-0.1,0-0.2,0-0.2-0.1l-0.1-0.6c0-0.1,0-0.2,0.1-0.2l3.3-0.8c0.1,0,0.2,0,0.2,0.1l0.1,0.6
		c0,0.1,0,0.2-0.1,0.2l-1.2,0.3l1,4.2c0,0.1,0,0.2-0.1,0.2l-0.7,0.2c-0.1,0-0.2,0-0.2-0.1L61.2,18z"/>
	<path class="st0" d="M67.7,15.9c0-0.1,0-0.2,0.1-0.2l1.8-0.2c1.5-0.1,2.8,1,2.9,2.5c0.1,1.5-1,2.8-2.5,2.9l-1.8,0.2
		c-0.1,0-0.1-0.1-0.2-0.1L67.7,15.9z M70,20.1c1-0.1,1.7-0.9,1.6-1.9c-0.1-1-0.9-1.7-1.9-1.6l-0.9,0.1l0.3,3.5L70,20.1z"/>
	<path class="st0" d="M81,20.9c0.6-0.5,1.8-1.6,2.4-2.2c0.3-0.3,0.5-0.5,0.5-0.8c0.1-0.3-0.1-0.7-0.7-0.8c-0.4-0.1-0.7,0.2-0.9,0.3
		c-0.1,0.1-0.2,0-0.2,0l-0.3-0.4c0-0.1,0-0.1,0-0.2c0,0,0.7-0.7,1.6-0.5c1.1,0.2,1.6,1,1.5,1.8c-0.1,0.5-0.3,0.8-0.7,1.2
		c-0.4,0.4-1.1,1-1.6,1.5l1.7,0.3c0.1,0,0.1,0.1,0.1,0.2l-0.1,0.5c0,0.1-0.1,0.1-0.2,0.1l-3-0.5c-0.1,0-0.1-0.1-0.1-0.2L81,20.9z"/>
	<path class="st0" d="M88.8,20c0.5-1.6,1.5-2.4,2.7-2c1.2,0.4,1.6,1.5,1.1,3.2c-0.5,1.6-1.5,2.4-2.7,2C88.7,22.8,88.3,21.7,88.8,20z
		 M91.6,20.9c0.3-1.1,0.2-1.8-0.4-2c-0.6-0.2-1.1,0.3-1.4,1.4c-0.3,1.1-0.2,1.8,0.4,2C90.7,22.5,91.2,22,91.6,20.9z"/>
	<path class="st0" d="M97.5,21.9l-0.7-0.2c-0.1,0-0.1-0.1-0.1-0.2l0.1-0.4c0-0.1,0.1-0.1,0.1-0.1l1.4-0.4l0.5,0.2
		c0.1,0,0.1,0.1,0.1,0.2l-2.1,4.5c0,0.1-0.1,0.1-0.2,0.1L96,25.5c-0.1,0-0.1-0.1-0.1-0.2L97.5,21.9z"/>
	<path class="st0" d="M103,24.7l-0.7-0.2c-0.1,0-0.1-0.1-0.1-0.2l0.2-0.3c0-0.1,0.1-0.1,0.1-0.1l1.4-0.2l0.5,0.3
		c0.1,0,0.1,0.1,0,0.2l-2.6,4.3c0,0.1-0.1,0.1-0.2,0.1l-0.6-0.3c-0.1,0-0.1-0.1-0.1-0.2L103,24.7z"/>
</g>
<g>
	<path class="st1" d="M75.8,115h-2.4c-2-6.3-7.2-8.5-13.4-11c-2.4-1-5-2-7.5-3.4c-5.3-2.9-8.6-7.8-9.1-13.7c-0.6-6.5,1-39.1,1-40.5
		l0.1-2.1l1.8,1.1c0,0,5.1,3.1,9.8,3.1c6,0,14.3-4.1,17.3-8.7l1-1.6l1,1.6c2.8,4.2,11.7,8.7,17.3,8.7c4.7,0,9.8-3.1,9.8-3.1l1.8-1.1
		l0.1,2.1c0.1,1.4,1.6,34,1,40.5c-0.5,5.9-3.8,10.8-9.1,13.7c-2.5,1.4-5,2.4-7.5,3.4C83.1,106.5,77.8,108.7,75.8,115L75.8,115z"/>
</g>
<g>
	<path class="st0" d="M35.5,111c0.1-0.1,0.2-0.1,0.3,0l0.8,0.7c0.1,0.1,0.1,0.2,0,0.3l-2.1,2.2l2.8,2.6l2.1-2.2
		c0.1-0.1,0.2-0.1,0.3,0l0.8,0.7c0.1,0.1,0.1,0.2,0,0.3l-5.3,5.6c-0.1,0.1-0.2,0.1-0.3,0l-0.8-0.7c-0.1-0.1-0.1-0.2,0-0.3l2.2-2.3
		l-2.8-2.6l-2.2,2.3c-0.1,0.1-0.2,0.1-0.3,0l-0.8-0.7c-0.1-0.1-0.1-0.2,0-0.3L35.5,111z"/>
	<path class="st0" d="M48.7,120.7c2,1.1,2.7,3.7,1.6,5.7c-1.1,2-3.7,2.7-5.7,1.6c-2-1.1-2.7-3.7-1.6-5.7
		C44.1,120.3,46.6,119.6,48.7,120.7z M45.3,126.7c1.3,0.7,2.9,0.3,3.6-1c0.7-1.3,0.3-2.9-1-3.7c-1.3-0.7-2.9-0.2-3.6,1
		C43.6,124.4,44,126,45.3,126.7z"/>
	<path class="st0" d="M57.3,125c0-0.1,0.2-0.2,0.3-0.1l4.5,1.3c0.1,0,0.2,0.2,0.1,0.3l-0.3,0.9c0,0.1-0.2,0.2-0.3,0.1l-3.3-1
		l-0.6,2.1l2.8,0.8c0.1,0,0.2,0.2,0.1,0.3l-0.3,0.9c0,0.1-0.2,0.2-0.3,0.1l-2.8-0.8l-0.8,2.8c0,0.1-0.2,0.2-0.3,0.1l-1-0.3
		c-0.1,0-0.2-0.2-0.1-0.3L57.3,125z"/>
	<path class="st0" d="M67.6,127.5c0-0.1,0.1-0.2,0.2-0.2l2.7,0.2c1.4,0.1,2.4,1.1,2.3,2.3c-0.1,0.9-0.9,1.5-1.4,1.7
		c0.6,0.2,1.4,0.9,1.3,2c-0.1,1.3-1.3,2.1-2.7,2l-2.8-0.2c-0.1,0-0.2-0.1-0.2-0.2L67.6,127.5z M69.9,134.2c0.6,0,1.1-0.4,1.1-1
		c0-0.6-0.5-1.1-1.1-1.1l-1.3-0.1l-0.2,2.1L69.9,134.2z M70.1,130.9c0.6,0,1-0.4,1.1-1c0-0.6-0.3-1-0.9-1.1l-1.2-0.1l-0.2,2
		L70.1,130.9z"/>
	<path class="st0" d="M78.7,135.5l2.6-8.2c0-0.1,0.1-0.1,0.2-0.2l0.1,0c0.1,0,0.2,0,0.2,0.1l4.6,7.3c0.1,0.1,0,0.3-0.2,0.3l-1,0.1
		c-0.2,0-0.3,0-0.4-0.2l-0.7-1.2l-3.4,0.5l-0.4,1.3c0,0.1-0.1,0.3-0.3,0.3l-1,0.1C78.8,135.8,78.6,135.6,78.7,135.5z M83.4,132.4
		l-1.5-2.4l0,0l-0.8,2.7L83.4,132.4z"/>
	<path class="st0" d="M90,125.7c0-0.1,0-0.2,0.1-0.3l1-0.4c0.1,0,0.2,0,0.3,0.1l1.6,4.5c0.3,0.9,1.2,1.4,2.2,1.1
		c0.9-0.4,1.3-1.3,1-2.2l-1.7-4.5c0-0.1,0-0.2,0.1-0.3l1-0.4c0.1,0,0.2,0,0.3,0.1l1.7,4.5c0.6,1.7-0.2,3.5-1.9,4.1
		c-1.7,0.6-3.5-0.2-4.1-1.9L90,125.7z"/>
	<path class="st0" d="M101.4,120.7c-0.1-0.1,0-0.2,0.1-0.3l4-2.6c0.1-0.1,0.2,0,0.3,0.1l0.5,0.8c0.1,0.1,0,0.2-0.1,0.3l-2.9,1.9
		l1,1.6l2.4-1.6c0.1-0.1,0.2,0,0.3,0.1l0.5,0.8c0.1,0.1,0,0.2-0.1,0.3l-2.4,1.6l1.1,1.7l2.9-1.9c0.1-0.1,0.2,0,0.3,0.1l0.5,0.8
		c0.1,0.1,0,0.2-0.1,0.3l-4,2.6c-0.1,0.1-0.2,0-0.3-0.1L101.4,120.7z"/>
	<path class="st0" d="M110.2,114.3c-0.1-0.1-0.1-0.2,0-0.3l2.4-2.3c1-1,2.6-1,3.6,0c0.8,0.8,0.9,1.9,0.4,2.9l3.2,1
		c0.2,0,0.2,0.2,0.1,0.4l-0.9,0.9c-0.1,0.1-0.2,0.1-0.2,0.1l-3.3-1.1l-0.9,0.9l2.1,2.1c0.1,0.1,0.1,0.2,0,0.3l-0.8,0.8
		c-0.1,0.1-0.2,0.1-0.3,0L110.2,114.3z M115.1,114.4c0.4-0.4,0.4-1.2,0-1.7c-0.4-0.4-1.2-0.4-1.6,0l-1.3,1.3l1.6,1.6L115.1,114.4z"
		/>
</g>
</svg>
